<?xml version="1.0" encoding="UTF-8"?>
<svg xmlns="http://www.w3.org/2000/svg" width="1024" height="640" viewBox="0 0 1024 640">
  <rect x="0" y="0" width="1024" height="640" fill="#121214" fill-opacity="1.000" />
  <g id="grid" stroke-linecap="butt" stroke-width="1" fill="none">
    <line x1="72.5" y1="24" x2="72.5" y2="584" stroke="#28282D" stroke-opacity="1.000" />
    <line x1="175.5" y1="24" x2="175.5" y2="584" stroke="#28282D" stroke-opacity="1.000" />
    <line x1="278.5" y1="24" x2="278.5" y2="584" stroke="#28282D" stroke-opacity="1.000" />
    <line x1="381.5" y1="24" x2="381.5" y2="584" stroke="#28282D" stroke-opacity="1.000" />
    <line x1="484.5" y1="24" x2="484.5" y2="584" stroke="#28282D" stroke-opacity="1.000" />
    <line x1="587.5" y1="24" x2="587.5" y2="584" stroke="#28282D" stroke-opacity="1.000" />
    <line x1="690.5" y1="24" x2="690.5" y2="584" stroke="#28282D" stroke-opacity="1.000" />
    <line x1="793.5" y1="24" x2="793.5" y2="584" stroke="#28282D" stroke-opacity="1.000" />
    <line x1="896.5" y1="24" x2="896.5" y2="584" stroke="#28282D" stroke-opacity="1.000" />
    <line x1="1000.5" y1="24" x2="1000.5" y2="584" stroke="#28282D" stroke-opacity="1.000" />
    <line x1="72" y1="24.5" x2="1000" y2="24.5" stroke="#28282D" stroke-opacity="1.000" />
    <line x1="72" y1="136.5" x2="1000" y2="136.5" stroke="#28282D" stroke-opacity="1.000" />
    <line x1="72" y1="248.5" x2="1000" y2="248.5" stroke="#28282D" stroke-opacity="1.000" />
    <line x1="72" y1="360.5" x2="1000" y2="360.5" stroke="#28282D" stroke-opacity="1.000" />
    <line x1="72" y1="472.5" x2="1000" y2="472.5" stroke="#28282D" stroke-opacity="1.000" />
    <line x1="72" y1="584.5" x2="1000" y2="584.5" stroke="#28282D" stroke-opacity="1.000" />
  </g>
  <g id="axes" stroke="#B4B4BE" stroke-opacity="1.000" stroke-width="1.5" fill="none">
    <line x1="72" y1="584.5" x2="1000" y2="584.5" />
    <line x1="72.5" y1="24" x2="72.5" y2="584" />
  </g>
  <text x="920" y="612" fill="#EBEBF5" fill-opacity="1.000" font-size="12">Index</text>
  <text x="80" y="38" fill="#EBEBF5" fill-opacity="1.000" font-size="12">Close</text>
  <g id="ticks" fill="none">
    <line x1="72.5" y1="584.5" x2="72.5" y2="578.5" stroke="#9696A0" stroke-opacity="1.000" stroke-width="1" />
    <text x="72.5" y="602" fill="#EBEBF5" fill-opacity="1.000" font-size="12" text-anchor="middle">0.00</text>
    <line x1="257.5" y1="584.5" x2="257.5" y2="578.5" stroke="#9696A0" stroke-opacity="1.000" stroke-width="1" />
    <text x="257.5" y="602" fill="#EBEBF5" fill-opacity="1.000" font-size="12" text-anchor="middle">100.00</text>
    <line x1="443.5" y1="584.5" x2="443.5" y2="578.5" stroke="#9696A0" stroke-opacity="1.000" stroke-width="1" />
    <text x="443.5" y="602" fill="#EBEBF5" fill-opacity="1.000" font-size="12" text-anchor="middle">200.00</text>
    <line x1="629.5" y1="584.5" x2="629.5" y2="578.5" stroke="#9696A0" stroke-opacity="1.000" stroke-width="1" />
    <text x="629.5" y="602" fill="#EBEBF5" fill-opacity="1.000" font-size="12" text-anchor="middle">300.00</text>
    <line x1="815.5" y1="584.5" x2="815.5" y2="578.5" stroke="#9696A0" stroke-opacity="1.000" stroke-width="1" />
    <text x="815.5" y="602" fill="#EBEBF5" fill-opacity="1.000" font-size="12" text-anchor="middle">400.00</text>
    <line x1="72.5" y1="451.5" x2="78.5" y2="451.5" stroke="#9696A0" stroke-opacity="1.000" stroke-width="1" />
    <text x="64" y="455.5" fill="#EBEBF5" fill-opacity="1.000" font-size="12" text-anchor="end">4300.00</text>
    <line x1="72.5" y1="317.5" x2="78.5" y2="317.5" stroke="#9696A0" stroke-opacity="1.000" stroke-width="1" />
    <text x="64" y="321.5" fill="#EBEBF5" fill-opacity="1.000" font-size="12" text-anchor="end">4320.00</text>
    <line x1="72.5" y1="184.5" x2="78.5" y2="184.5" stroke="#9696A0" stroke-opacity="1.000" stroke-width="1" />
    <text x="64" y="188.5" fill="#EBEBF5" fill-opacity="1.000" font-size="12" text-anchor="end">4340.00</text>
    <line x1="72.5" y1="50.5" x2="78.5" y2="50.5" stroke="#9696A0" stroke-opacity="1.000" stroke-width="1" />
    <text x="64" y="54.5" fill="#EBEBF5" fill-opacity="1.000" font-size="12" text-anchor="end">4360.00</text>
  </g>
  <g id="series" fill="none" stroke-linejoin="round" stroke-linecap="round">
    <path d="M 72 390.7091 L 72 157.11694 L 73.85972 157.11694 L 75.71944 157.11694 L 77.579155 157.11694 L 79.43888 157.11694 L 81.2986 157.11694 L 83.15832 84.878296 L 85.018036 84.878296 L 86.877754 94.70169 L 88.73747 94.70169 L 90.5972 148.4964 L 92.45691 148.4964 L 94.316635 131.65634 L 96.17635 234.30072 L 98.03607 145.08832 L 99.89579 154.77802 L 101.75551 157.05011 L 103.615234 122.03342 L 105.474945 122.03342 L 107.33467 122.03342 L 109.19439 118.424835 L 111.05411 63.159912 L 112.913826 63.159912 L 114.773544 58.883057 L 116.63327 58.883057 L 118.49298 58.883057 L 120.35271 58.883057 L 122.212425 24 L 124.07214 24 L 125.93186 91.226746 L 127.79158 91.226746 L 129.6513 42.176636 L 131.51102 42.176636 L 133.37074 24.066833 L 135.23047 24.066833 L 137.09018 24.066833 L 138.94989 24.066833 L 140.80962 24.066833 L 142.66934 24.066833 L 144.52905 24.066833 L 146.38878 24.066833 L 148.2485 24 L 150.10822 24 L 151.96793 24 L 153.82765 24.066833 L 155.68738 82.472565 L 157.54709 82.472565 L 159.40681 82.472565 L 161.26654 82.472565 L 163.12625 82.472565 L 164.98596 24.40094 L 166.84569 24.40094 L 168.70541 107.93317 L 170.56512 107.93317 L 172.42485 107.93317 L 174.28458 107.93317 L 176.14429 170.74939 L 178.004 170.74939 L 179.86372 170.74939 L 181.72345 147.96182 L 183.58316 147.96182 L 185.44289 138.20526 L 187.30261 135.86633 L 189.16232 135.86633 L 191.02203 135.86633 L 192.88176 172.0191 L 194.74149 172.0191 L 196.6012 172.0191 L 198.46092 172.0191 L 200.32063 172.0191 L 202.18036 208.30548 L 204.04007 208.30548 L 205.8998 123.0358 L 207.75952 123.0358 L 209.61923 123.0358 L 211.47896 123.0358 L 213.33867 123.0358 L 215.1984 123.0358 L 217.0581 119.828156 L 218.91783 119.828156 L 220.77756 236.97372 L 222.63727 236.97372 L 224.497 240.5155 L 226.3567 247.26492 L 228.21643 253.68018 L 230.07614 253.68018 L 231.93587 253.68018 L 233.7956 253.68018 L 235.6553 253.68018 L 237.51503 253.68018 L 239.37474 237.642 L 241.23447 262.16705 L 243.09418 238.64441 L 244.9539 144.35321 L 246.81363 144.35321 L 248.67334 237.642 L 250.53307 172.82098 L 252.39278 172.82098 L 254.2525 181.97614 L 256.1122 137.73749 L 257.97192 138.73984 L 259.83167 139.40811 L 261.69138 137.87112 L 263.5511 137.87112 L 265.41083 117.422424 L 267.27054 117.55609 L 269.13025 117.55609 L 270.99 194.73987 L 272.8497 194.73987 L 274.7094 117.35562 L 276.56915 117.35562 L 278.42883 117.35562 L 280.28857 117.35562 L 282.1483 136.2673 L 284.008 136.2673 L 285.86774 136.2673 L 287.72745 53.269714 L 289.58716 53.269714 L 291.4469 53.269714 L 293.3066 53.269714 L 295.16632 53.269714 L 297.02606 53.269714 L 298.88577 177.63245 L 300.74548 177.63245 L 302.60522 79.19809 L 304.4649 79.19809 L 306.32465 79.19809 L 308.18436 79.19809 L 310.04407 79.19809 L 311.9038 79.19809 L 313.76352 79.19809 L 315.62323 79.19809 L 317.48297 79.19809 L 319.34268 253.81384 L 321.2024 290.03342 L 323.06213 359.33173 L 324.92184 255.284 L 326.78156 258.82578 L 328.64127 284.6205 L 330.501 304.93558 L 332.36072 304.93558 L 334.22043 304.93558 L 336.08014 253.81384 L 337.93988 183.51312 L 339.7996 183.51312 L 341.6593 351.37946 L 343.51904 351.37946 L 345.37875 351.37946 L 347.23846 351.37946 L 349.09818 351.37946 L 350.95792 351.37946 L 352.81763 351.37946 L 354.67734 351.37946 L 356.53708 293.9093 L 358.3968 293.9093 L 360.2565 293.9093 L 362.1162 293.9093 L 363.97595 293.9093 L 365.83566 293.9093 L 367.69537 293.9093 L 369.5551 293.9093 L 371.41483 293.9093 L 373.27454 293.9093 L 375.13425 293.9093 L 376.994 378.51074 L 378.8537 406.24344 L 380.7134 405.30786 L 382.57315 473.537 L 384.43286 478.48212 L 386.29257 478.48212 L 388.15228 486.70166 L 390.01202 486.70166 L 391.87173 375.23627 L 393.73145 375.23627 L 395.5912 375.23627 L 397.4509 375.23627 L 399.3106 375.23627 L 401.17032 375.23627 L 403.03006 375.23627 L 404.88977 375.23627 L 406.74948 375.23627 L 408.60922 375.23627 L 410.46893 440.1241 L 412.32864 440.1241 L 414.18835 440.1241 L 416.0481 462.1766 L 417.9078 462.1766 L 419.76752 462.1766 L 421.62726 462.1766 L 423.48697 395.2172 L 425.34668 395.2172 L 427.2064 407.11218 L 429.06613 407.11218 L 430.92584 388.8687 L 432.78555 388.8687 L 434.6453 388.8687 L 436.505 451.41766 L 438.36472 451.41766 L 440.22443 451.41766 L 442.08417 451.41766 L 443.94388 451.4845 L 445.8036 497.59427 L 447.66333 451.61813 L 449.52304 518.31024 L 451.38275 532.81146 L 453.24246 537.0883 L 455.1022 491.78043 L 456.9619 492.2482 L 458.82162 492.2482 L 460.68137 492.2482 L 462.54108 518.31024 L 464.4008 538.759 L 466.2605 538.759 L 468.12024 538.759 L 469.97995 505.34607 L 471.83966 555.86633 L 473.6994 555.86633 L 475.5591 518.9117 L 477.41882 518.9117 L 479.27853 518.9117 L 481.13828 518.9117 L 482.998 518.9117 L 484.8577 518.9117 L 486.71744 518.9117 L 488.57715 518.9117 L 490.43686 518.9117 L 492.29657 518.9117 L 494.1563 518.9117 L 496.01602 518.9117 L 497.87573 558.00476 L 499.73547 563.61816 L 501.59518 574.17664 L 503.4549 584 L 505.3146 539.494 L 507.17435 552.1909 L 509.03406 566.22437 L 510.89377 566.22437 L 512.75354 568.6969 L 514.6132 568.6969 L 516.4729 568.6969 L 518.33264 581.6611 L 520.1924 581.6611 L 522.0521 502.3389 L 523.9118 502.3389 L 525.77155 502.3389 L 527.6312 532.07635 L 529.49097 558.3389 L 531.3507 558.3389 L 533.21045 558.3389 L 535.0701 530.3389 L 536.9298 530.3389 L 538.78955 531.6754 L 540.6493 531.6754 L 542.50903 509.68973 L 544.3687 509.68973 L 546.22845 538.9594 L 548.08813 538.9594 L 549.9479 490.51074 L 551.8076 490.51074 L 553.66736 496.8592 L 555.52704 514.5012 L 557.3867 514.5012 L 559.24646 514.5012 L 561.1062 514.5012 L 562.96594 566.15753 L 564.8257 559.8759 L 566.68536 559.8759 L 568.54504 559.8759 L 570.4048 531.074 L 572.2645 531.074 L 574.12427 531.074 L 575.98395 531.074 L 577.8437 531.074 L 579.70337 531.074 L 581.5631 559.3413 L 583.42285 559.3413 L 585.28253 559.3413 L 587.1423 559.3413 L 589.002 460.57278 L 590.8617 465.9857 L 592.72144 465.9857 L 594.5812 491.9809 L 596.44086 491.9809 L 598.3006 491.9809 L 600.1603 437.71838 L 602.02 545.77563 L 603.87976 545.77563 L 605.73944 545.77563 L 607.5992 545.77563 L 609.4589 570.2339 L 611.3186 570.2339 L 613.17834 496.39142 L 615.0381 496.39142 L 616.89777 496.39142 L 618.7575 496.39142 L 620.61725 496.39142 L 622.4769 496.39142 L 624.3367 575.78046 L 626.19635 575.78046 L 628.0561 575.78046 L 629.91583 544.5728 L 631.7755 544.5728 L 633.63525 545.77563 L 635.495 545.77563 L 637.3547 545.77563 L 639.2144 545.77563 L 641.07416 545.77563 L 642.93384 541.2315 L 644.7936 538.4248 L 646.6533 538.4248 L 648.513 501.0692 L 650.37274 501.47015 L 652.2324 501.47015 L 654.09216 501.47015 L 655.9519 528.06683 L 657.8116 528.06683 L 659.6713 519.1122 L 661.53107 512.63007 L 663.39075 512.63007 L 665.2505 512.63007 L 667.1102 477.14557 L 668.9699 427.09308 L 670.82965 432.50598 L 672.6894 432.50598 L 674.5491 432.50598 L 676.4088 432.50598 L 678.2685 432.50598 L 680.12823 432.50598 L 681.988 432.50598 L 683.84766 432.50598 L 685.7074 518.31024 L 687.56714 518.31024 L 689.4268 518.31024 L 691.28656 518.31024 L 693.1463 518.31024 L 695.006 518.31024 L 696.8657 518.31024 L 698.72546 518.31024 L 700.58514 518.31024 L 702.4449 518.31024 L 704.30457 518.31024 L 706.1643 521.31744 L 708.02405 521.31744 L 709.8837 521.31744 L 711.74347 521.31744 L 713.6032 521.31744 L 715.4629 530.67303 L 717.32263 530.67303 L 719.1824 530.67303 L 721.04205 530.67303 L 722.9018 530.67303 L 724.76154 530.67303 L 726.6212 583.39856 L 728.48096 583.39856 L 730.34064 583.39856 L 732.2004 583.39856 L 734.0601 498.52985 L 735.9198 498.52985 L 737.77954 498.52985 L 739.6393 498.52985 L 741.49896 565.8902 L 743.3587 565.8902 L 745.21844 515.1026 L 747.0781 515.1026 L 748.93787 527.59906 L 750.7976 527.59906 L 752.6573 527.59906 L 754.517 527.59906 L 756.3767 527.59906 L 758.23645 539.1599 L 760.0962 539.1599 L 761.9559 539.1599 L 763.8156 539.1599 L 765.67535 539.1599 L 767.53503 539.1599 L 769.3948 539.1599 L 771.2545 539.1599 L 773.1142 539.1599 L 774.97394 539.1599 L 776.8337 514.969 L 778.69336 548.31506 L 780.5531 548.31506 L 782.4128 541.432 L 784.2725 541.432 L 786.13226 491.6468 L 787.99194 491.6468 L 789.8517 564.21954 L 791.7114 513.63245 L 793.5711 513.8998 L 795.43085 514.1002 L 797.2906 514.1002 L 799.15027 514.1002 L 801.01 514.1002 L 802.86975 514.1002 L 804.72943 514.1002 L 806.5892 514.1002 L 808.44885 514.1002 L 810.3086 514.1002 L 812.16833 514.1002 L 814.028 514.1002 L 815.88776 514.1002 L 817.7475 514.1002 L 819.6072 514.1002 L 821.4669 513.29834 L 823.32666 513.29834 L 825.18634 513.29834 L 827.0461 513.29834 L 828.9058 513.29834 L 830.7655 513.29834 L 832.62524 557.537 L 834.4849 558.2721 L 836.34467 558.2721 L 838.2044 558.2721 L 840.0641 557.537 L 841.9238 557.537 L 843.78357 557.537 L 845.64325 557.537 L 847.503 557.537 L 849.36273 496.25775 L 851.2224 496.25775 L 853.08215 496.25775 L 854.9419 496.25775 L 856.8016 521.65155 L 858.6613 526.0621 L 860.521 526.0621 L 862.38074 488.43915 L 864.2405 489.77567 L 866.10016 489.77567 L 867.9599 489.77567 L 869.81964 497.59427 L 871.6793 502.00476 L 873.53906 542.4344 L 875.3988 542.4344 L 877.2585 539.56085 L 879.1182 539.56085 L 880.97797 539.56085 L 882.83765 467.78998 L 884.6974 467.78998 L 886.55707 530.6062 L 888.4168 530.6062 L 890.27655 530.6062 L 892.1362 533.747 L 893.996 533.747 L 895.8557 533.747 L 897.7154 533.747 L 899.57513 533.747 L 901.4349 533.747 L 903.29456 533.747 L 905.1543 533.747 L 907.01404 533.747 L 908.8737 533.747 L 910.73346 533.747 L 912.59314 533.747 L 914.4529 487.16946 L 916.3126 456.63007 L 918.1723 456.63007 L 920.03204 506.6826 L 921.8918 506.6826 L 923.75146 506.6826 L 925.6112 506.6826 L 927.47095 506.6826 L 929.3306 506.6826 L 931.19037 458.5012 L 933.0501 458.5012 L 934.9098 458.5012 L 936.76953 458.5012 L 938.6292 458.5012 L 940.48895 472.60144 L 942.3487 472.60144 L 944.2084 472.60144 L 946.0681 472.60144 L 947.92786 472.60144 L 949.78754 472.60144 L 951.6473 460.3723 L 953.507 459.63724 L 955.3667 459.63724 L 957.22644 459.63724 L 959.0862 459.63724 L 960.94586 459.63724 L 962.8056 459.63724 L 964.6653 459.63724 L 966.525 459.63724 L 968.38477 459.63724 L 970.24445 451.68497 L 972.1042 451.68497 L 973.9639 451.68497 L 975.8236 451.68497 L 977.68335 451.68497 L 979.5431 451.68497 L 981.4028 451.68497 L 983.2625 451.68497 L 985.12225 487.77087 L 986.98193 487.77087 L 988.8417 506.6826 L 990.70135 506.6826 L 992.5611 506.6826 L 994.42084 506.6826 L 996.2805 471.4654 L 998.14026 472 L 1000 472 L 1000 390.7091 Z" fill="#40A0FF" fill-opacity="0.376" />
    <path d="M 72 157.11694 L 73.85972 157.11694 L 75.71944 157.11694 L 77.579155 157.11694 L 79.43888 157.11694 L 81.2986 157.11694 L 83.15832 84.878296 L 85.018036 84.878296 L 86.877754 94.70169 L 88.73747 94.70169 L 90.5972 148.4964 L 92.45691 148.4964 L 94.316635 131.65634 L 96.17635 234.30072 L 98.03607 145.08832 L 99.89579 154.77802 L 101.75551 157.05011 L 103.615234 122.03342 L 105.474945 122.03342 L 107.33467 122.03342 L 109.19439 118.424835 L 111.05411 63.159912 L 112.913826 63.159912 L 114.773544 58.883057 L 116.63327 58.883057 L 118.49298 58.883057 L 120.35271 58.883057 L 122.212425 24 L 124.07214 24 L 125.93186 91.226746 L 127.79158 91.226746 L 129.6513 42.176636 L 131.51102 42.176636 L 133.37074 24.066833 L 135.23047 24.066833 L 137.09018 24.066833 L 138.94989 24.066833 L 140.80962 24.066833 L 142.66934 24.066833 L 144.52905 24.066833 L 146.38878 24.066833 L 148.2485 24 L 150.10822 24 L 151.96793 24 L 153.82765 24.066833 L 155.68738 82.472565 L 157.54709 82.472565 L 159.40681 82.472565 L 161.26654 82.472565 L 163.12625 82.472565 L 164.98596 24.40094 L 166.84569 24.40094 L 168.70541 107.93317 L 170.56512 107.93317 L 172.42485 107.93317 L 174.28458 107.93317 L 176.14429 170.74939 L 178.004 170.74939 L 179.86372 170.74939 L 181.72345 147.96182 L 183.58316 147.96182 L 185.44289 138.20526 L 187.30261 135.86633 L 189.16232 135.86633 L 191.02203 135.86633 L 192.88176 172.0191 L 194.74149 172.0191 L 196.6012 172.0191 L 198.46092 172.0191 L 200.32063 172.0191 L 202.18036 208.30548 L 204.04007 208.30548 L 205.8998 123.0358 L 207.75952 123.0358 L 209.61923 123.0358 L 211.47896 123.0358 L 213.33867 123.0358 L 215.1984 123.0358 L 217.0581 119.828156 L 218.91783 119.828156 L 220.77756 236.97372 L 222.63727 236.97372 L 224.497 240.5155 L 226.3567 247.26492 L 228.21643 253.68018 L 230.07614 253.68018 L 231.93587 253.68018 L 233.7956 253.68018 L 235.6553 253.68018 L 237.51503 253.68018 L 239.37474 237.642 L 241.23447 262.16705 L 243.09418 238.64441 L 244.9539 144.35321 L 246.81363 144.35321 L 248.67334 237.642 L 250.53307 172.82098 L 252.39278 172.82098 L 254.2525 181.97614 L 256.1122 137.73749 L 257.97192 138.73984 L 259.83167 139.40811 L 261.69138 137.87112 L 263.5511 137.87112 L 265.41083 117.422424 L 267.27054 117.55609 L 269.13025 117.55609 L 270.99 194.73987 L 272.8497 194.73987 L 274.7094 117.35562 L 276.56915 117.35562 L 278.42883 117.35562 L 280.28857 117.35562 L 282.1483 136.2673 L 284.008 136.2673 L 285.86774 136.2673 L 287.72745 53.269714 L 289.58716 53.269714 L 291.4469 53.269714 L 293.3066 53.269714 L 295.16632 53.269714 L 297.02606 53.269714 L 298.88577 177.63245 L 300.74548 177.63245 L 302.60522 79.19809 L 304.4649 79.19809 L 306.32465 79.19809 L 308.18436 79.19809 L 310.04407 79.19809 L 311.9038 79.19809 L 313.76352 79.19809 L 315.62323 79.19809 L 317.48297 79.19809 L 319.34268 253.81384 L 321.2024 290.03342 L 323.06213 359.33173 L 324.92184 255.284 L 326.78156 258.82578 L 328.64127 284.6205 L 330.501 304.93558 L 332.36072 304.93558 L 334.22043 304.93558 L 336.08014 253.81384 L 337.93988 183.51312 L 339.7996 183.51312 L 341.6593 351.37946 L 343.51904 351.37946 L 345.37875 351.37946 L 347.23846 351.37946 L 349.09818 351.37946 L 350.95792 351.37946 L 352.81763 351.37946 L 354.67734 351.37946 L 356.53708 293.9093 L 358.3968 293.9093 L 360.2565 293.9093 L 362.1162 293.9093 L 363.97595 293.9093 L 365.83566 293.9093 L 367.69537 293.9093 L 369.5551 293.9093 L 371.41483 293.9093 L 373.27454 293.9093 L 375.13425 293.9093 L 376.994 378.51074 L 378.8537 406.24344 L 380.7134 405.30786 L 382.57315 473.537 L 384.43286 478.48212 L 386.29257 478.48212 L 388.15228 486.70166 L 390.01202 486.70166 L 391.87173 375.23627 L 393.73145 375.23627 L 395.5912 375.23627 L 397.4509 375.23627 L 399.3106 375.23627 L 401.17032 375.23627 L 403.03006 375.23627 L 404.88977 375.23627 L 406.74948 375.23627 L 408.60922 375.23627 L 410.46893 440.1241 L 412.32864 440.1241 L 414.18835 440.1241 L 416.0481 462.1766 L 417.9078 462.1766 L 419.76752 462.1766 L 421.62726 462.1766 L 423.48697 395.2172 L 425.34668 395.2172 L 427.2064 407.11218 L 429.06613 407.11218 L 430.92584 388.8687 L 432.78555 388.8687 L 434.6453 388.8687 L 436.505 451.41766 L 438.36472 451.41766 L 440.22443 451.41766 L 442.08417 451.41766 L 443.94388 451.4845 L 445.8036 497.59427 L 447.66333 451.61813 L 449.52304 518.31024 L 451.38275 532.81146 L 453.24246 537.0883 L 455.1022 491.78043 L 456.9619 492.2482 L 458.82162 492.2482 L 460.68137 492.2482 L 462.54108 518.31024 L 464.4008 538.759 L 466.2605 538.759 L 468.12024 538.759 L 469.97995 505.34607 L 471.83966 555.86633 L 473.6994 555.86633 L 475.5591 518.9117 L 477.41882 518.9117 L 479.27853 518.9117 L 481.13828 518.9117 L 482.998 518.9117 L 484.8577 518.9117 L 486.71744 518.9117 L 488.57715 518.9117 L 490.43686 518.9117 L 492.29657 518.9117 L 494.1563 518.9117 L 496.01602 518.9117 L 497.87573 558.00476 L 499.73547 563.61816 L 501.59518 574.17664 L 503.4549 584 L 505.3146 539.494 L 507.17435 552.1909 L 509.03406 566.22437 L 510.89377 566.22437 L 512.75354 568.6969 L 514.6132 568.6969 L 516.4729 568.6969 L 518.33264 581.6611 L 520.1924 581.6611 L 522.0521 502.3389 L 523.9118 502.3389 L 525.77155 502.3389 L 527.6312 532.07635 L 529.49097 558.3389 L 531.3507 558.3389 L 533.21045 558.3389 L 535.0701 530.3389 L 536.9298 530.3389 L 538.78955 531.6754 L 540.6493 531.6754 L 542.50903 509.68973 L 544.3687 509.68973 L 546.22845 538.9594 L 548.08813 538.9594 L 549.9479 490.51074 L 551.8076 490.51074 L 553.66736 496.8592 L 555.52704 514.5012 L 557.3867 514.5012 L 559.24646 514.5012 L 561.1062 514.5012 L 562.96594 566.15753 L 564.8257 559.8759 L 566.68536 559.8759 L 568.54504 559.8759 L 570.4048 531.074 L 572.2645 531.074 L 574.12427 531.074 L 575.98395 531.074 L 577.8437 531.074 L 579.70337 531.074 L 581.5631 559.3413 L 583.42285 559.3413 L 585.28253 559.3413 L 587.1423 559.3413 L 589.002 460.57278 L 590.8617 465.9857 L 592.72144 465.9857 L 594.5812 491.9809 L 596.44086 491.9809 L 598.3006 491.9809 L 600.1603 437.71838 L 602.02 545.77563 L 603.87976 545.77563 L 605.73944 545.77563 L 607.5992 545.77563 L 609.4589 570.2339 L 611.3186 570.2339 L 613.17834 496.39142 L 615.0381 496.39142 L 616.89777 496.39142 L 618.7575 496.39142 L 620.61725 496.39142 L 622.4769 496.39142 L 624.3367 575.78046 L 626.19635 575.78046 L 628.0561 575.78046 L 629.91583 544.5728 L 631.7755 544.5728 L 633.63525 545.77563 L 635.495 545.77563 L 637.3547 545.77563 L 639.2144 545.77563 L 641.07416 545.77563 L 642.93384 541.2315 L 644.7936 538.4248 L 646.6533 538.4248 L 648.513 501.0692 L 650.37274 501.47015 L 652.2324 501.47015 L 654.09216 501.47015 L 655.9519 528.06683 L 657.8116 528.06683 L 659.6713 519.1122 L 661.53107 512.63007 L 663.39075 512.63007 L 665.2505 512.63007 L 667.1102 477.14557 L 668.9699 427.09308 L 670.82965 432.50598 L 672.6894 432.50598 L 674.5491 432.50598 L 676.4088 432.50598 L 678.2685 432.50598 L 680.12823 432.50598 L 681.988 432.50598 L 683.84766 432.50598 L 685.7074 518.31024 L 687.56714 518.31024 L 689.4268 518.31024 L 691.28656 518.31024 L 693.1463 518.31024 L 695.006 518.31024 L 696.8657 518.31024 L 698.72546 518.31024 L 700.58514 518.31024 L 702.4449 518.31024 L 704.30457 518.31024 L 706.1643 521.31744 L 708.02405 521.31744 L 709.8837 521.31744 L 711.74347 521.31744 L 713.6032 521.31744 L 715.4629 530.67303 L 717.32263 530.67303 L 719.1824 530.67303 L 721.04205 530.67303 L 722.9018 530.67303 L 724.76154 530.67303 L 726.6212 583.39856 L 728.48096 583.39856 L 730.34064 583.39856 L 732.2004 583.39856 L 734.0601 498.52985 L 735.9198 498.52985 L 737.77954 498.52985 L 739.6393 498.52985 L 741.49896 565.8902 L 743.3587 565.8902 L 745.21844 515.1026 L 747.0781 515.1026 L 748.93787 527.59906 L 750.7976 527.59906 L 752.6573 527.59906 L 754.517 527.59906 L 756.3767 527.59906 L 758.23645 539.1599 L 760.0962 539.1599 L 761.9559 539.1599 L 763.8156 539.1599 L 765.67535 539.1599 L 767.53503 539.1599 L 769.3948 539.1599 L 771.2545 539.1599 L 773.1142 539.1599 L 774.97394 539.1599 L 776.8337 514.969 L 778.69336 548.31506 L 780.5531 548.31506 L 782.4128 541.432 L 784.2725 541.432 L 786.13226 491.6468 L 787.99194 491.6468 L 789.8517 564.21954 L 791.7114 513.63245 L 793.5711 513.8998 L 795.43085 514.1002 L 797.2906 514.1002 L 799.15027 514.1002 L 801.01 514.1002 L 802.86975 514.1002 L 804.72943 514.1002 L 806.5892 514.1002 L 808.44885 514.1002 L 810.3086 514.1002 L 812.16833 514.1002 L 814.028 514.1002 L 815.88776 514.1002 L 817.7475 514.1002 L 819.6072 514.1002 L 821.4669 513.29834 L 823.32666 513.29834 L 825.18634 513.29834 L 827.0461 513.29834 L 828.9058 513.29834 L 830.7655 513.29834 L 832.62524 557.537 L 834.4849 558.2721 L 836.34467 558.2721 L 838.2044 558.2721 L 840.0641 557.537 L 841.9238 557.537 L 843.78357 557.537 L 845.64325 557.537 L 847.503 557.537 L 849.36273 496.25775 L 851.2224 496.25775 L 853.08215 496.25775 L 854.9419 496.25775 L 856.8016 521.65155 L 858.6613 526.0621 L 860.521 526.0621 L 862.38074 488.43915 L 864.2405 489.77567 L 866.10016 489.77567 L 867.9599 489.77567 L 869.81964 497.59427 L 871.6793 502.00476 L 873.53906 542.4344 L 875.3988 542.4344 L 877.2585 539.56085 L 879.1182 539.56085 L 880.97797 539.56085 L 882.83765 467.78998 L 884.6974 467.78998 L 886.55707 530.6062 L 888.4168 530.6062 L 890.27655 530.6062 L 892.1362 533.747 L 893.996 533.747 L 895.8557 533.747 L 897.7154 533.747 L 899.57513 533.747 L 901.4349 533.747 L 903.29456 533.747 L 905.1543 533.747 L 907.01404 533.747 L 908.8737 533.747 L 910.73346 533.747 L 912.59314 533.747 L 914.4529 487.16946 L 916.3126 456.63007 L 918.1723 456.63007 L 920.03204 506.6826 L 921.8918 506.6826 L 923.75146 506.6826 L 925.6112 506.6826 L 927.47095 506.6826 L 929.3306 506.6826 L 931.19037 458.5012 L 933.0501 458.5012 L 934.9098 458.5012 L 936.76953 458.5012 L 938.6292 458.5012 L 940.48895 472.60144 L 942.3487 472.60144 L 944.2084 472.60144 L 946.0681 472.60144 L 947.92786 472.60144 L 949.78754 472.60144 L 951.6473 460.3723 L 953.507 459.63724 L 955.3667 459.63724 L 957.22644 459.63724 L 959.0862 459.63724 L 960.94586 459.63724 L 962.8056 459.63724 L 964.6653 459.63724 L 966.525 459.63724 L 968.38477 459.63724 L 970.24445 451.68497 L 972.1042 451.68497 L 973.9639 451.68497 L 975.8236 451.68497 L 977.68335 451.68497 L 979.5431 451.68497 L 981.4028 451.68497 L 983.2625 451.68497 L 985.12225 487.77087 L 986.98193 487.77087 L 988.8417 506.6826 L 990.70135 506.6826 L 992.5611 506.6826 L 994.42084 506.6826 L 996.2805 471.4654 L 998.14026 472 L 1000 472" stroke="#40A0FF" stroke-opacity="1.000" stroke-width="2" fill="none" />
  </g>
</svg>
